<?xml version="1.0" encoding="UTF-8" standalone="no"?>
<!-- Created with Inkscape (http://www.inkscape.org/) -->

<svg
   xmlns:osb="http://www.openswatchbook.org/uri/2009/osb"
   xmlns:dc="http://purl.org/dc/elements/1.1/"
   xmlns:cc="http://creativecommons.org/ns#"
   xmlns:rdf="http://www.w3.org/1999/02/22-rdf-syntax-ns#"
   xmlns:svg="http://www.w3.org/2000/svg"
   xmlns="http://www.w3.org/2000/svg"
   xmlns:sodipodi="http://sodipodi.sourceforge.net/DTD/sodipodi-0.dtd"
   xmlns:inkscape="http://www.inkscape.org/namespaces/inkscape"
   width="210mm"
   height="297mm"
   viewBox="0 0 210 297"
   version="1.1"
   id="svg8"
   inkscape:version="0.92.2 (unknown)"
   sodipodi:docname="logo.svg">
  <defs
     id="defs2">
    <linearGradient
       id="linearGradient954"
       osb:paint="solid">
      <stop
         style="stop-color:#ff6600;stop-opacity:1;"
         offset="0"
         id="stop952" />
    </linearGradient>
  </defs>
  <sodipodi:namedview
     id="base"
     pagecolor="#ffffff"
     bordercolor="#666666"
     borderopacity="1.0"
     inkscape:pageopacity="0.0"
     inkscape:pageshadow="2"
     inkscape:zoom="0.49497475"
     inkscape:cx="277.0403"
     inkscape:cy="921.63927"
     inkscape:document-units="mm"
     inkscape:current-layer="layer1"
     showgrid="false"
     inkscape:window-width="1366"
     inkscape:window-height="709"
     inkscape:window-x="0"
     inkscape:window-y="27"
     inkscape:window-maximized="1" />
  <metadata
     id="metadata5">
    <rdf:RDF>
      <cc:Work
         rdf:about="">
        <dc:format>image/svg+xml</dc:format>
        <dc:type
           rdf:resource="http://purl.org/dc/dcmitype/StillImage" />
        <dc:title />
      </cc:Work>
    </rdf:RDF>
  </metadata>
  <g
     inkscape:label="Layer 1"
     inkscape:groupmode="layer"
     id="layer1">
    <rect
       style="opacity:1;fill:#ffffff;fill-opacity:1;stroke:#ff6600;stroke-width:1.9970274;stroke-miterlimit:4;stroke-dasharray:none;stroke-dashoffset:18.89763832;stroke-opacity:1;paint-order:fill markers stroke"
       id="rect815-7"
       width="33.117062"
       height="31.750696"
       x="18.064346"
       y="10.777923" />
    <path
       style="opacity:1;fill:#ff6600;fill-opacity:1;stroke:none;stroke-width:2.45204639;stroke-miterlimit:4;stroke-dasharray:none;stroke-dashoffset:18.89763832;stroke-opacity:1;paint-order:fill markers stroke"
       d="m 32.519671,40.430792 c -1.366532,-0.02722 -1.476677,-0.0431 -1.476677,-0.210108 0,-0.09942 0.06536,-0.205832 0.145246,-0.23653 0.07987,-0.03061 0.145263,-0.10418 0.145263,-0.163371 0,-0.05939 0.471989,-0.834086 1.048863,-1.721808 0.576871,-0.887701 1.106225,-1.722937 1.176334,-1.85608 0.07012,-0.133021 0.233213,-0.372829 0.362455,-0.532578 0.129236,-0.159766 0.674379,-0.987685 1.211421,-1.839806 0.537053,-0.85213 1.011798,-1.572847 1.054995,-1.601626 0.08669,-0.05785 0.966507,-1.493509 1.24464,-2.031077 0.160999,-0.311173 0.163414,-0.365224 0.0282,-0.62941 -0.182466,-0.356382 -1.423559,-2.395609 -2.444801,-4.016973 -0.419312,-0.665719 -0.910647,-1.450053 -1.091859,-1.742959 -0.18122,-0.292927 -0.693292,-1.099046 -1.137949,-1.791385 -1.278697,-1.990994 -1.661923,-2.689666 -1.523487,-2.7776 0.06578,-0.04174 2.547543,-0.07664 5.515015,-0.07746 l 5.395374,-0.0015 0.346938,0.54234 c 0.190829,0.298298 0.422935,0.679596 0.515821,0.847296 0.09288,0.167737 0.539174,0.871375 0.991765,1.563736 0.452591,0.692338 1.034547,1.607382 1.293243,2.033456 0.258695,0.426037 0.56749,0.927154 0.686217,1.113544 2.463977,3.868506 2.874446,4.556711 2.826685,4.739388 -0.03464,0.132503 -2.286974,3.652078 -4.929691,7.703459 -0.416879,0.639077 -0.964657,1.495535 -1.217287,1.903225 -0.359158,0.579591 -0.520036,0.753824 -0.737717,0.798853 -0.268123,0.05559 -6.385371,0.04589 -9.428973,-0.01549 z"
       id="path845-5"
       inkscape:connector-curvature="0" />
    <text
       xml:space="preserve"
       style="font-style:normal;font-weight:normal;font-size:44.70096588px;line-height:1.25;font-family:sans-serif;letter-spacing:0px;word-spacing:0px;fill:#ff6600;fill-opacity:1;stroke:none;stroke-width:3.72508025"
       x="54.412437"
       y="42.828625"
       id="text960"
       transform="scale(0.99586189,1.0041553)"><tspan
         sodipodi:role="line"
         x="54.412437"
         y="42.828625"
         style="font-style:normal;font-variant:normal;font-weight:600;font-stretch:normal;font-family:'Segoe UI';-inkscape-font-specification:'Segoe UI Semi-Bold';fill:#ff6600;stroke-width:3.72508025"
         id="tspan962">kalakal</tspan></text>
  </g>
</svg>
